<?xml version="1.0" encoding="UTF-8"?>
<svg id="svg4498" width="300" height="300" version="1.1" viewBox="0 0 300.00001 300.00001" xmlns="http://www.w3.org/2000/svg">
 <path id="path4496" d="m286.98 97.633c-0.62-22.367-14.982-37.88-31.665-45.667-20-9.333-43.334-3.667-57.667 11-5.135 5.255-8.91 11.958-16 18.667-12.333 11.667-19.96 15.125-31.667 15.333-18.666 0.333-30.784-11.132-33.536-13.376-4.888-3.986-5.796-9.624-11-15-13.012-13.445-37.35-25.9-63-14-46.796 21.71-38.796 104.71 31 100 9.87 1.043 16.785 5.29 22.537 11.043 2.338 2.338 5.51 5.85 8 10 2.8 4.666 6.226 12.194 7 16 1.57 7.707 1.668 13.666-1.666 22.333-3.06 7.953-9.698 16.35-10.87 22.623-6.796 36.377 20.467 64.06 52 64 27.495-0.053 58.293-25.693 51-63-1.412-7.227-5.592-13.913-9.463-21.29-3.85-7.338-3.128-20.623-0.665-31.333 3.537-8.956 5.87-12.29 11.333-18 2.915-3.047 16.104-10.896 24.796-12.377 9.537-1.623 17.683-1.638 25.537-4.623 19.462-7.396 34.668-28.333 34-52.333zm-222.33 32.013c-14.91 0-27-12.244-27-27.346s12.09-27.346 27-27.346c14.912 0 27 12.243 27 27.346s-12.088 27.346-27 27.346zm85.333 145.67c-14.91 0-27-12.243-27-27.346s12.09-27.346 27-27.346 27 12.243 27 27.346-12.09 27.346-27 27.346zm0-98c-14.91 0-27-12.244-27-27.346s12.09-27.346 27-27.346c14.912 0 27 12.243 27 27.346s-12.088 27.345-27 27.345zm84.667-49.666c-14.91 0-27-12.244-27-27.346s12.09-27.346 27-27.346c14.912 0 27 12.243 27 27.346s-12.088 27.346-27 27.346z" fill="#0726fb"/>
 <circle id="path5049" cx="64.515" cy="102.19" r="27.481" fill="#fb0707"/>
 <circle id="border_circle_3" cx="64.883" cy="102.91" r="17.085" fill="#fffdfd"/>
 <circle id="path5049-5" cx="150" cy="150" r="27.481" fill="#fb0707"/>
 <circle id="path5049-4" cx="234.59" cy="100.25" r="27.481" fill="#fb0707"/>
 <circle id="border_circle_1" cx="234.96" cy="100.98" r="17.085" fill="#fffdfd"/>
 <circle id="path5049-7" cx="149.93" cy="247.94" r="27.481" fill="#fb0707"/>
 <circle id="border_circle_2" cx="150.3" cy="248.67" r="17.085" fill="#fffdfd"/>
 <circle id="center_circle" cx="150" cy="150" r="17.085" fill="#fffdfd" onclick=""/>
</svg>
